<svg width="121" height="41" viewBox="0 0 121 41" fill="none" xmlns="http://www.w3.org/2000/svg">
<path d="M110.803 0.203499H10.2026C9.83595 0.203499 9.47365 0.203499 9.10792 0.205499C8.80177 0.207499 8.49806 0.213309 8.18897 0.218199C7.51748 0.226101 6.84758 0.285175 6.18507 0.394909C5.52349 0.507032 4.88264 0.718415 4.28419 1.02191C3.68647 1.32797 3.14031 1.72567 2.66554 2.20057C2.18827 2.67414 1.79043 3.22152 1.48732 3.82166C1.18337 4.42061 0.972609 5.06244 0.862319 5.72498C0.75098 6.38668 0.691067 7.05602 0.683119 7.72698C0.673839 8.03358 0.672859 8.3412 0.667969 8.64784V31.7621C0.672859 32.0726 0.673839 32.3734 0.683119 32.684C0.69107 33.3549 0.750982 34.0242 0.862319 34.6859C0.972305 35.3488 1.18308 35.991 1.48732 36.5902C1.79029 37.1884 2.18819 37.7336 2.66554 38.2045C3.13851 38.6815 3.68502 39.0795 4.28419 39.3832C4.88264 39.6875 5.52342 39.9001 6.18507 40.014C6.84769 40.1229 7.51753 40.182 8.18897 40.1908C8.49806 40.1976 8.80177 40.2015 9.10792 40.2015C9.47364 40.2035 9.83597 40.2035 10.2026 40.2035H110.803C111.162 40.2035 111.527 40.2035 111.887 40.2015C112.191 40.2015 112.504 40.1976 112.809 40.1908C113.479 40.1824 114.147 40.1233 114.809 40.014C115.472 39.8993 116.116 39.6868 116.717 39.3832C117.315 39.0793 117.861 38.6813 118.334 38.2045C118.81 37.7317 119.209 37.187 119.516 36.5902C119.818 35.9906 120.026 35.3484 120.135 34.6859C120.246 34.0241 120.308 33.355 120.32 32.684C120.324 32.3734 120.324 32.0726 120.324 31.7621C120.332 31.3988 120.332 31.0375 120.332 30.6683V9.73963C120.332 9.37342 120.332 9.01014 120.324 8.64784C120.324 8.3412 120.324 8.03358 120.32 7.72694C120.308 7.05592 120.246 6.38673 120.135 5.72494C120.026 5.06278 119.817 4.421 119.516 3.82162C118.898 2.6187 117.92 1.63952 116.717 1.02182C116.115 0.719067 115.472 0.50774 114.809 0.394819C114.148 0.284602 113.479 0.225507 112.809 0.218059C112.504 0.213179 112.191 0.207319 111.887 0.205369C111.527 0.203369 111.162 0.203369 110.803 0.203369V0.203499Z" fill="#A6A6A6"/>
<path d="M9.11277 39.3285C8.80809 39.3285 8.51077 39.3246 8.20848 39.3178C7.58227 39.3096 6.95751 39.2551 6.33934 39.1547C5.76293 39.0554 5.20455 38.8708 4.6826 38.6068C4.16545 38.345 3.69376 38.0018 3.2856 37.5902C2.87155 37.1835 2.52682 36.7117 2.26509 36.1937C2.00048 35.6723 1.81736 35.1134 1.72209 34.5365C1.61922 33.9166 1.56356 33.2898 1.55559 32.6615C1.54925 32.4506 1.54095 31.7484 1.54095 31.7484V8.64783C1.54095 8.64783 1.54979 7.95642 1.55564 7.75329C1.56327 7.12597 1.61861 6.50014 1.72117 5.88122C1.81661 5.30274 1.99988 4.74224 2.26463 4.21912C2.5254 3.70143 2.86821 3.22935 3.27977 2.82117C3.69088 2.40911 4.16408 2.0641 4.68211 1.7987C5.20286 1.53558 5.76019 1.35222 6.33543 1.25476C6.95563 1.15333 7.58256 1.09849 8.21094 1.0907L9.11326 1.07849H111.882L112.795 1.09119C113.418 1.09859 114.039 1.15294 114.653 1.25378C115.234 1.35247 115.798 1.53711 116.324 1.80163C117.362 2.33648 118.206 3.18265 118.739 4.22156C119 4.74107 119.18 5.297 119.274 5.87048C119.378 6.49448 119.436 7.12523 119.448 7.75769C119.451 8.04089 119.451 8.34509 119.451 8.64783C119.459 9.02283 119.459 9.37976 119.459 9.73962V30.6683C119.459 31.0316 119.459 31.3861 119.451 31.7435C119.451 32.0687 119.451 32.3666 119.447 32.6732C119.436 33.2944 119.378 33.9139 119.276 34.5267C119.183 35.1078 119.001 35.671 118.736 36.1967C118.473 36.7091 118.13 37.1768 117.721 37.5824C117.312 37.9962 116.84 38.3414 116.321 38.6049C115.796 38.8709 115.234 39.0562 114.653 39.1547C114.035 39.2556 113.41 39.3102 112.784 39.3178C112.491 39.3246 112.185 39.3285 111.887 39.3285L110.803 39.3305L9.11277 39.3285Z" fill="black"/>
<path d="M25.4368 20.5046C25.4476 19.6699 25.6693 18.8515 26.0813 18.1256C26.4933 17.3996 27.0823 16.7897 27.7934 16.3525C27.3417 15.7073 26.7457 15.1764 26.0529 14.8018C25.3601 14.4273 24.5894 14.2194 23.8022 14.1948C22.123 14.0186 20.495 15.1996 19.6393 15.1996C18.7671 15.1996 17.4496 14.2123 16.0308 14.2415C15.1132 14.2712 14.2188 14.538 13.4349 15.0161C12.6511 15.4941 12.0044 16.1671 11.5579 16.9694C9.62392 20.3178 11.0665 25.2388 12.9191 27.9455C13.846 29.2708 14.9293 30.7513 16.3467 30.6988C17.7338 30.6412 18.2518 29.8143 19.9261 29.8143C21.5849 29.8143 22.0709 30.6988 23.5171 30.6654C25.0055 30.6412 25.9433 29.3341 26.8377 27.9962C27.5036 27.0519 28.0161 26.0081 28.3561 24.9037C27.4914 24.538 26.7535 23.9258 26.2343 23.1435C25.7152 22.3612 25.4378 21.4434 25.4368 20.5046Z" fill="white"/>
<path d="M22.7052 12.4148C23.5168 11.4406 23.9166 10.1884 23.8198 8.92419C22.5799 9.05441 21.4347 9.64697 20.6122 10.5838C20.21 11.0415 19.902 11.5739 19.7058 12.1507C19.5095 12.7274 19.4289 13.3372 19.4685 13.9452C20.0886 13.9516 20.7021 13.8172 21.2628 13.5521C21.8234 13.287 22.3166 12.8981 22.7052 12.4148Z" fill="white"/>
<path d="M42.9702 27.3432H38.2368L37.1001 30.6996H35.0952L39.5786 18.2816H41.6616L46.145 30.6996H44.1059L42.9702 27.3432ZM38.727 25.7943H42.479L40.6294 20.3471H40.5777L38.727 25.7943Z" fill="white"/>
<path d="M55.8277 26.1729C55.8277 28.9864 54.3218 30.794 52.0493 30.794C51.4737 30.8241 50.9012 30.6915 50.3974 30.4114C49.8936 30.1313 49.4789 29.7149 49.2007 29.21H49.1577V33.6944H47.2993V21.6456H49.0982V23.1515H49.1324C49.4233 22.649 49.845 22.2348 50.3527 21.953C50.8603 21.6711 51.4348 21.5321 52.0152 21.5509C54.313 21.5509 55.8277 23.3673 55.8277 26.1729ZM53.9175 26.1729C53.9175 24.3399 52.9702 23.1349 51.5249 23.1349C50.105 23.1349 49.1499 24.3653 49.1499 26.1729C49.1499 27.9972 50.105 29.2188 51.5249 29.2188C52.9702 29.2188 53.9175 28.0226 53.9175 26.1729Z" fill="white"/>
<path d="M65.7925 26.1729C65.7925 28.9864 64.2867 30.794 62.0142 30.794C61.4385 30.8241 60.866 30.6915 60.3622 30.4114C59.8584 30.1313 59.4437 29.7149 59.1656 29.21H59.1226V33.6944H57.2642V21.6456H59.063V23.1514H59.0972C59.3881 22.649 59.8098 22.2348 60.3175 21.9529C60.8251 21.6711 61.3997 21.5321 61.98 21.5509C64.2779 21.5509 65.7925 23.3673 65.7925 26.1729ZM63.8824 26.1729C63.8824 24.3399 62.9351 23.1348 61.4898 23.1348C60.0698 23.1348 59.1148 24.3653 59.1148 26.1729C59.1148 27.9972 60.0698 29.2188 61.4898 29.2188C62.9351 29.2188 63.8824 28.0225 63.8824 26.1729H63.8824Z" fill="white"/>
<path d="M72.3784 27.2397C72.5161 28.4711 73.7124 29.2797 75.3472 29.2797C76.9136 29.2797 78.0406 28.4711 78.0406 27.3607C78.0406 26.3969 77.3609 25.8197 75.7515 25.4242L74.1421 25.0365C71.8619 24.4857 70.8033 23.4193 70.8033 21.6888C70.8033 19.5463 72.6704 18.0746 75.3218 18.0746C77.9458 18.0746 79.7447 19.5463 79.8052 21.6888H77.9292C77.8169 20.4496 76.7925 19.7015 75.2954 19.7015C73.7983 19.7015 72.7739 20.4584 72.7739 21.5599C72.7739 22.4379 73.4282 22.9545 75.0288 23.3499L76.397 23.6859C78.9448 24.2884 80.0034 25.3119 80.0034 27.1283C80.0034 29.4515 78.1528 30.9066 75.2095 30.9066C72.4556 30.9066 70.5962 29.4857 70.4761 27.2396L72.3784 27.2397Z" fill="white"/>
<path d="M84.0142 19.5033V21.6459H85.7358V23.1176H84.0142V28.1088C84.0142 28.8842 84.3589 29.2455 85.1157 29.2455C85.3201 29.2419 85.5242 29.2276 85.727 29.2025V30.6654C85.3868 30.729 85.0409 30.7577 84.6948 30.7513C82.8618 30.7513 82.147 30.0628 82.147 28.307V23.1176H80.8306V21.6459H82.1469V19.5033H84.0142Z" fill="white"/>
<path d="M86.733 26.1732C86.733 23.3246 88.4107 21.5345 91.0269 21.5345C93.6519 21.5345 95.3218 23.3245 95.3218 26.1732C95.3218 29.0297 93.6607 30.8119 91.0269 30.8119C88.3941 30.8119 86.733 29.0297 86.733 26.1732ZM93.4283 26.1732C93.4283 24.2191 92.5328 23.0658 91.0269 23.0658C89.521 23.0658 88.6265 24.2279 88.6265 26.1732C88.6265 28.1351 89.521 29.2797 91.0269 29.2797C92.5328 29.2797 93.4282 28.1351 93.4282 26.1732H93.4283Z" fill="white"/>
<path d="M96.854 21.6455H98.6265V23.1865H98.6695C98.7894 22.7052 99.0713 22.2799 99.4679 21.982C99.8645 21.6841 100.352 21.5318 100.847 21.5508C101.061 21.55 101.275 21.5733 101.484 21.6201V23.3584C101.214 23.2758 100.932 23.2378 100.649 23.2461C100.379 23.2351 100.11 23.2827 99.86 23.3856C99.6101 23.4885 99.3855 23.6442 99.2015 23.8421C99.0175 24.04 98.8786 24.2754 98.7941 24.5321C98.7097 24.7887 98.6818 25.0606 98.7124 25.3291V30.6992H96.854L96.854 21.6455Z" fill="white"/>
<path d="M110.052 28.0404C109.802 29.684 108.202 30.8119 106.154 30.8119C103.52 30.8119 101.885 29.0472 101.885 26.2162C101.885 23.3763 103.529 21.5345 106.076 21.5345C108.581 21.5345 110.156 23.2552 110.156 26.0004V26.6371H103.761V26.7494C103.732 27.0826 103.773 27.4183 103.884 27.7341C103.994 28.0499 104.17 28.3387 104.4 28.5813C104.631 28.8238 104.91 29.0146 105.22 29.1409C105.529 29.2672 105.863 29.3261 106.197 29.3138C106.636 29.355 107.077 29.2533 107.453 29.0238C107.83 28.7944 108.123 28.4495 108.288 28.0404L110.052 28.0404ZM103.77 25.3383H108.296C108.313 25.0387 108.268 24.7388 108.163 24.4576C108.058 24.1764 107.897 23.9199 107.688 23.7041C107.48 23.4884 107.229 23.318 106.951 23.2038C106.674 23.0896 106.376 23.034 106.076 23.0404C105.773 23.0386 105.473 23.0967 105.193 23.2115C104.913 23.3262 104.658 23.4953 104.444 23.7089C104.23 23.9226 104.06 24.1765 103.944 24.4562C103.828 24.7358 103.769 25.0356 103.77 25.3383V25.3383Z" fill="white"/>
<path d="M38.4941 8.93402C38.8838 8.90606 39.2747 8.96492 39.6388 9.10635C40.0029 9.24778 40.3311 9.46826 40.5997 9.75189C40.8683 10.0355 41.0706 10.3752 41.192 10.7465C41.3134 11.1178 41.3509 11.5113 41.3018 11.8989C41.3018 13.8051 40.2715 14.9009 38.4941 14.9009H36.3389V8.93402H38.4941ZM37.2656 14.057H38.3906C38.669 14.0737 38.9476 14.028 39.2062 13.9234C39.4647 13.8188 39.6967 13.6578 39.8852 13.4523C40.0737 13.2467 40.2139 13.0017 40.2958 12.7351C40.3777 12.4685 40.399 12.1869 40.3584 11.911C40.3961 11.6362 40.3725 11.3564 40.2894 11.0917C40.2063 10.8271 40.0657 10.5841 39.8776 10.3802C39.6896 10.1762 39.4587 10.0164 39.2016 9.91218C38.9445 9.80794 38.6676 9.76186 38.3906 9.77723H37.2656V14.057Z" fill="white"/>
<path d="M42.3486 12.6474C42.3203 12.3515 42.3542 12.0529 42.448 11.7709C42.5418 11.4888 42.6936 11.2294 42.8935 11.0095C43.0935 10.7895 43.3372 10.6137 43.609 10.4934C43.8809 10.3732 44.1749 10.311 44.4721 10.311C44.7694 10.311 45.0634 10.3732 45.3353 10.4934C45.6071 10.6137 45.8508 10.7895 46.0508 11.0095C46.2507 11.2294 46.4025 11.4888 46.4963 11.7709C46.5901 12.0529 46.624 12.3515 46.5957 12.6474C46.6245 12.9436 46.5911 13.2426 46.4975 13.5251C46.4039 13.8077 46.2522 14.0675 46.0522 14.2879C45.8522 14.5083 45.6083 14.6844 45.3362 14.805C45.0641 14.9255 44.7698 14.9878 44.4721 14.9878C44.1745 14.9878 43.8802 14.9255 43.6081 14.805C43.3359 14.6844 43.092 14.5083 42.8921 14.2879C42.6921 14.0675 42.5404 13.8077 42.4468 13.5251C42.3532 13.2426 42.3198 12.9436 42.3486 12.6474ZM45.6816 12.6474C45.6816 11.6713 45.2431 11.1005 44.4736 11.1005C43.7011 11.1005 43.2666 11.6713 43.2666 12.6474C43.2666 13.6313 43.7012 14.1977 44.4736 14.1977C45.2431 14.1977 45.6816 13.6274 45.6816 12.6474H45.6816Z" fill="white"/>
<path d="M52.2412 14.9008H51.3193L50.3887 11.5843H50.3184L49.3916 14.9008H48.4785L47.2373 10.3978H48.1387L48.9453 13.8338H49.0117L49.9375 10.3978H50.79L51.7158 13.8338H51.7861L52.5889 10.3978H53.4775L52.2412 14.9008Z" fill="white"/>
<path d="M54.5215 10.3974H55.377V11.1127H55.4434C55.556 10.8558 55.746 10.6404 55.9869 10.4966C56.2278 10.3528 56.5075 10.2877 56.7871 10.3105C57.0062 10.294 57.2262 10.327 57.4308 10.4071C57.6354 10.4872 57.8194 10.6123 57.969 10.7732C58.1187 10.934 58.2303 11.1265 58.2955 11.3363C58.3607 11.5461 58.3779 11.7679 58.3457 11.9853V14.9003H57.457V12.2084C57.457 11.4848 57.1426 11.1249 56.4854 11.1249C56.3366 11.118 56.1881 11.1433 56.05 11.1991C55.912 11.255 55.7876 11.34 55.6855 11.4484C55.5834 11.5568 55.5059 11.6859 55.4584 11.8271C55.4108 11.9682 55.3944 12.118 55.4102 12.266V14.9003H54.5215L54.5215 10.3974Z" fill="white"/>
<path d="M59.7617 8.64001H60.6504V14.9008H59.7617V8.64001Z" fill="white"/>
<path d="M61.8858 12.6474C61.8575 12.3514 61.8913 12.0529 61.9852 11.7708C62.0791 11.4887 62.2308 11.2293 62.4308 11.0094C62.6308 10.7894 62.8745 10.6136 63.1464 10.4933C63.4182 10.373 63.7122 10.3109 64.0095 10.3109C64.3068 10.3109 64.6008 10.373 64.8727 10.4933C65.1446 10.6136 65.3883 10.7894 65.5883 11.0094C65.7882 11.2293 65.94 11.4887 66.0339 11.7708C66.1277 12.0529 66.1616 12.3514 66.1333 12.6474C66.1621 12.9436 66.1286 13.2426 66.035 13.5251C65.9414 13.8076 65.7897 14.0675 65.5897 14.2879C65.3897 14.5083 65.1458 14.6844 64.8736 14.8049C64.6015 14.9255 64.3072 14.9877 64.0095 14.9877C63.7119 14.9877 63.4176 14.9255 63.1454 14.8049C62.8733 14.6844 62.6294 14.5083 62.4294 14.2879C62.2294 14.0675 62.0777 13.8076 61.984 13.5251C61.8904 13.2426 61.8569 12.9436 61.8858 12.6474ZM65.2188 12.6474C65.2188 11.6713 64.7803 11.1005 64.0108 11.1005C63.2383 11.1005 62.8038 11.6713 62.8038 12.6474C62.8038 13.6313 63.2383 14.1977 64.0108 14.1977C64.7803 14.1977 65.2188 13.6274 65.2188 12.6474H65.2188Z" fill="white"/>
<path d="M67.0688 13.6273C67.0688 12.8168 67.6724 12.3495 68.7436 12.2831L69.9634 12.2128V11.8241C69.9634 11.3485 69.6489 11.08 69.0415 11.08C68.5454 11.08 68.2017 11.2621 68.103 11.5804H67.2427C67.3335 10.807 68.061 10.3109 69.0825 10.3109C70.2114 10.3109 70.8481 10.8729 70.8481 11.8241V14.9008H69.9927V14.2679H69.9224C69.7796 14.4949 69.5792 14.68 69.3416 14.8042C69.104 14.9284 68.8377 14.9873 68.5698 14.9749C68.3808 14.9946 68.1897 14.9744 68.009 14.9157C67.8282 14.857 67.6618 14.7611 67.5203 14.6341C67.3789 14.5072 67.2657 14.352 67.1879 14.1786C67.1102 14.0052 67.0696 13.8174 67.0688 13.6273ZM69.9634 13.2425V12.8661L68.8638 12.9364C68.2436 12.9779 67.9624 13.1888 67.9624 13.5858C67.9624 13.9911 68.314 14.2269 68.7974 14.2269C68.939 14.2413 69.0821 14.2269 69.2181 14.1849C69.3541 14.1428 69.4803 14.0737 69.5891 13.9819C69.6979 13.8901 69.7871 13.7773 69.8514 13.6503C69.9157 13.5232 69.9538 13.3846 69.9634 13.2425Z" fill="white"/>
<path d="M72.0161 12.6474C72.0161 11.2245 72.7476 10.3231 73.8853 10.3231C74.1667 10.3102 74.446 10.3776 74.6905 10.5175C74.935 10.6574 75.1347 10.864 75.2661 11.1131H75.3325V8.64001H76.2212V14.9008H75.3696V14.1893H75.2993C75.1577 14.4368 74.9511 14.6408 74.7019 14.7793C74.4526 14.9178 74.1702 14.9855 73.8853 14.975C72.7398 14.975 72.0161 14.0736 72.0161 12.6474ZM72.9341 12.6474C72.9341 13.6024 73.3843 14.1771 74.1372 14.1771C74.8862 14.1771 75.3492 13.5941 75.3492 12.6513C75.3492 11.7128 74.8814 11.1215 74.1372 11.1215C73.3892 11.1215 72.9341 11.7001 72.9341 12.6474H72.9341Z" fill="white"/>
<path d="M79.8979 12.6474C79.8696 12.3515 79.9035 12.0529 79.9973 11.7709C80.0911 11.4888 80.2429 11.2294 80.4428 11.0095C80.6428 10.7895 80.8865 10.6137 81.1583 10.4934C81.4302 10.3732 81.7242 10.311 82.0215 10.311C82.3187 10.311 82.6127 10.3732 82.8846 10.4934C83.1564 10.6137 83.4001 10.7895 83.6001 11.0095C83.8 11.2294 83.9518 11.4888 84.0456 11.7709C84.1394 12.0529 84.1733 12.3515 84.145 12.6474C84.1738 12.9436 84.1404 13.2426 84.0468 13.5251C83.9532 13.8077 83.8015 14.0675 83.6015 14.2879C83.4016 14.5083 83.1577 14.6844 82.8855 14.805C82.6134 14.9255 82.3191 14.9878 82.0215 14.9878C81.7238 14.9878 81.4295 14.9255 81.1574 14.805C80.8853 14.6844 80.6414 14.5083 80.4414 14.2879C80.2414 14.0675 80.0897 13.8077 79.9961 13.5251C79.9025 13.2426 79.8691 12.9436 79.8979 12.6474ZM83.2309 12.6474C83.2309 11.6713 82.7924 11.1005 82.0229 11.1005C81.2505 11.1005 80.8159 11.6713 80.8159 12.6474C80.8159 13.6313 81.2505 14.1977 82.0229 14.1977C82.7925 14.1977 83.2309 13.6274 83.2309 12.6474Z" fill="white"/>
<path d="M85.3374 10.3974H86.1929V11.1127H86.2593C86.3719 10.8558 86.5619 10.6404 86.8028 10.4966C87.0437 10.3528 87.3234 10.2877 87.603 10.3105C87.8221 10.294 88.0421 10.327 88.2467 10.4071C88.4513 10.4872 88.6353 10.6123 88.785 10.7732C88.9346 10.934 89.0462 11.1265 89.1114 11.3363C89.1766 11.5461 89.1938 11.7679 89.1616 11.9853V14.9003H88.273V12.2084C88.273 11.4848 87.9585 11.1249 87.3013 11.1249C87.1525 11.118 87.004 11.1433 86.866 11.1991C86.7279 11.255 86.6036 11.34 86.5014 11.4484C86.3993 11.5568 86.3218 11.6859 86.2743 11.8271C86.2268 11.9682 86.2103 12.118 86.2261 12.266V14.9003H85.3374V10.3974Z" fill="white"/>
<path d="M94.1831 9.27673V10.4183H95.1587V11.1669H94.1831V13.4823C94.1831 13.954 94.3774 14.1605 94.8198 14.1605C94.9331 14.1602 95.0462 14.1533 95.1587 14.14V14.8802C94.9991 14.9088 94.8374 14.924 94.6753 14.9257C93.687 14.9257 93.2935 14.578 93.2935 13.7098V11.1668H92.5786V10.4183H93.2935V9.27673H94.1831Z" fill="white"/>
<path d="M96.3726 8.64001H97.2534V11.1215H97.3237C97.4419 10.8621 97.6371 10.6456 97.8828 10.5012C98.1285 10.3569 98.4127 10.2918 98.6967 10.3148C98.9147 10.303 99.1326 10.3394 99.3349 10.4214C99.5371 10.5034 99.7188 10.6291 99.8669 10.7894C100.015 10.9498 100.126 11.1408 100.192 11.349C100.258 11.5571 100.277 11.7772 100.248 11.9935V14.9008H99.3579V12.2128C99.3579 11.4935 99.0229 11.1293 98.3951 11.1293C98.2423 11.1167 98.0887 11.1377 97.9449 11.1908C97.8011 11.2438 97.6707 11.3277 97.5627 11.4364C97.4547 11.5451 97.3718 11.6762 97.3197 11.8203C97.2676 11.9644 97.2477 12.1182 97.2613 12.2709V14.9007H96.3726L96.3726 8.64001Z" fill="white"/>
<path d="M105.429 13.6849C105.308 14.0964 105.047 14.4524 104.69 14.6906C104.333 14.9287 103.904 15.0339 103.478 14.9876C103.181 14.9954 102.887 14.9386 102.614 14.8211C102.342 14.7036 102.098 14.5281 101.9 14.307C101.702 14.0859 101.555 13.8243 101.468 13.5405C101.381 13.2567 101.357 12.9574 101.398 12.6634C101.358 12.3685 101.383 12.0686 101.469 11.7839C101.556 11.4992 101.702 11.2365 101.899 11.0134C102.096 10.7903 102.339 10.6122 102.61 10.491C102.882 10.3697 103.177 10.3083 103.474 10.3109C104.727 10.3109 105.483 11.1669 105.483 12.5809V12.891H102.303V12.9408C102.289 13.106 102.31 13.2723 102.364 13.4291C102.418 13.5858 102.505 13.7295 102.617 13.851C102.73 13.9725 102.867 14.069 103.02 14.1344C103.172 14.1998 103.337 14.2326 103.502 14.2308C103.715 14.2563 103.93 14.218 104.121 14.1208C104.312 14.0236 104.469 13.8718 104.574 13.6849L105.429 13.6849ZM102.303 12.2337H104.578C104.589 12.0826 104.568 11.9308 104.517 11.7881C104.466 11.6454 104.386 11.5149 104.282 11.405C104.177 11.2952 104.051 11.2084 103.911 11.1502C103.771 11.092 103.621 11.0637 103.469 11.0672C103.315 11.0653 103.163 11.0941 103.021 11.1521C102.878 11.21 102.749 11.2959 102.64 11.4046C102.532 11.5133 102.446 11.6427 102.388 11.7851C102.33 11.9275 102.301 12.08 102.303 12.2337H102.303Z" fill="white"/>
</svg>
