<svg width="25" height="25" viewBox="0 0 25 25" fill="none" xmlns="http://www.w3.org/2000/svg">
<path d="M16.517 2.20361H8.447C6.87015 2.20547 5.35844 2.83276 4.24353 3.94785C3.12862 5.06294 2.50159 6.57477 2.5 8.15161L2.5 16.2216C2.50185 17.7985 3.12914 19.3102 4.24424 20.4251C5.35933 21.54 6.87115 22.167 8.448 22.1686H16.518C18.0948 22.1668 19.6066 21.5395 20.7215 20.4244C21.8364 19.3093 22.4634 17.7975 22.465 16.2206V8.15061C22.4631 6.57377 21.8359 5.06205 20.7208 3.94714C19.6057 2.83224 18.0938 2.2052 16.517 2.20361V2.20361ZM20.457 16.2206C20.457 16.738 20.3551 17.2504 20.1571 17.7284C19.9591 18.2064 19.6689 18.6408 19.303 19.0066C18.9371 19.3725 18.5028 19.6627 18.0248 19.8607C17.5468 20.0587 17.0344 20.1606 16.517 20.1606H8.447C7.40222 20.1603 6.40032 19.7451 5.66165 19.0063C4.92297 18.2674 4.508 17.2654 4.508 16.2206V8.15061C4.50827 7.10583 4.92349 6.10394 5.66235 5.36526C6.40122 4.62658 7.40322 4.21161 8.448 4.21161H16.518C17.5628 4.21188 18.5647 4.6271 19.3034 5.36597C20.042 6.10483 20.457 7.10683 20.457 8.15161V16.2216V16.2206Z" fill="#E2E8F0"/>
<path d="M12.482 7.02258C11.1134 7.0247 9.80154 7.56937 8.83391 8.53719C7.86627 9.50501 7.32186 10.817 7.32001 12.1856C7.32159 13.5545 7.86603 14.8669 8.83391 15.835C9.80179 16.803 11.1141 17.3477 12.483 17.3496C13.8521 17.348 15.1647 16.8034 16.1328 15.8353C17.1008 14.8672 17.6454 13.5547 17.647 12.1856C17.6449 10.8167 17.0999 9.50447 16.1317 8.53678C15.1634 7.56909 13.8509 7.02491 12.482 7.02358V7.02258ZM12.482 15.3416C11.6452 15.3416 10.8428 15.0092 10.2511 14.4175C9.65941 13.8258 9.32701 13.0233 9.32701 12.1866C9.32701 11.3498 9.65941 10.5473 10.2511 9.95566C10.8428 9.36398 11.6452 9.03158 12.482 9.03158C13.3188 9.03158 14.1213 9.36398 14.7129 9.95566C15.3046 10.5473 15.637 11.3498 15.637 12.1866C15.637 13.0233 15.3046 13.8258 14.7129 14.4175C14.1213 15.0092 13.3188 15.3416 12.482 15.3416Z" fill="#E2E8F0"/>
<path d="M17.656 8.29858C18.3392 8.29858 18.893 7.74476 18.893 7.06158C18.893 6.37841 18.3392 5.82458 17.656 5.82458C16.9728 5.82458 16.419 6.37841 16.419 7.06158C16.419 7.74476 16.9728 8.29858 17.656 8.29858Z" fill="#E2E8F0"/>
</svg>
