<svg width="25" height="25" viewBox="0 0 25 25" fill="none" xmlns="http://www.w3.org/2000/svg">
<path d="M22.459 13.9226V21.3016H18.181V14.4166C18.181 12.6866 17.562 11.5066 16.014 11.5066C14.832 11.5066 14.128 12.3026 13.819 13.0716C13.706 13.3466 13.677 13.7296 13.677 14.1146V21.3016H9.397C9.397 21.3016 9.455 9.64161 9.397 8.43261H13.677V10.2566L13.649 10.2986H13.677V10.2566C14.245 9.38161 15.26 8.13061 17.533 8.13061C20.348 8.13061 22.459 9.97061 22.459 13.9226ZM4.921 2.22961C3.458 2.22961 2.5 3.18961 2.5 4.45261C2.5 5.68761 3.43 6.67661 4.865 6.67661H4.893C6.386 6.67661 7.313 5.68761 7.313 4.45261C7.287 3.18961 6.387 2.22961 4.922 2.22961H4.921ZM2.754 21.3016H7.032V8.43261H2.754V21.3016Z" fill="#E2E8F0"/>
</svg>
